PathFileType  4	(X/Y/Z) H:\Shared drives\HIT\Data\HapticPilot\Subject1\Edited\Files_W_HJCs
DataRate	CameraRate	NumFrames	NumMarkers	Units	OrigDataRate	OrigDataStartFrame	OrigNumFrames
   50.0		   50.0		    4		     56		 mm	   50.0	      142	    227
Frame#	Time	r_knee			r_shank_antsup			r_ankle			r_calc			r_5meta			r_toe			L_knee			L_shank_antsup			L_ankle			L_calc			L_5meta			L_toe			r_mknee			r_mankle			L_mknee			L_mankle			r_sh2			r_sh3			r_sh4			L_sh2			L_sh3			r_thigh1			r_thigh2			r_thigh3			r_thigh4			r_thigh5			L_thigh1			L_thigh2			L_thigh3			L_thigh4			r.ASIS			r.PSIS			L.ASIS			L.PSIS			C7			R_Shoulder			L_Shoulder			Sternum			R_HJC			L_HJC			R_HJC_reg			L_HJC_reg			midPSIS			midASIS			midHJC			midPelvis			R_KJC			L_KJC			R_AJC			L_AJC			R_AJC_proj			R_5meta_proj			R_toe_proj			L_AJC_proj			L_5meta_proj			L_toe_proj			
		X1	Y1	Z1	X2	Y2	Z2	X3	Y3	Z3	X4	Y4	Z4	X5	Y5	Z5	X6	Y6	Z6	X7	Y7	Z7	X8	Y8	Z8	X9	Y9	Z9	X10	Y10	Z10	X11	Y11	Z11	X12	Y12	Z12	X13	Y13	Z13	X14	Y14	Z14	X15	Y15	Z15	X16	Y16	Z16	X17	Y17	Z17	X18	Y18	Z18	X19	Y19	Z19	X20	Y20	Z20	X21	Y21	Z21	X22	Y22	Z22	X23	Y23	Z23	X24	Y24	Z24	X25	Y25	Z25	X26	Y26	Z26	X27	Y27	Z27	X28	Y28	Z28	X29	Y29	Z29	X30	Y30	Z30	X31	Y31	Z31	X32	Y32	Z32	X33	Y33	Z33	X34	Y34	Z34	X35	Y35	Z35	X36	Y36	Z36	X37	Y37	Z37	X38	Y38	Z38	X39	Y39	Z39	X40	Y40	Z40	X41	Y41	Z41	X42	Y42	Z42	X43	Y43	Z43	X44	Y44	Z44	X45	Y45	Z45	X46	Y46	Z46	X47	Y47	Z47	X48	Y48	Z48	X49	Y49	Z49	X50	Y50	Z50	X51	Y51	Z51	X52	Y52	Z52	X53	Y53	Z53	X54	Y54	Z54	X55	Y55	Z55	X56	Y56	Z56	

142	2.82000	775.195	578.298	-409.272	789.074	491.856	-404.493	735.200	114.358	-409.139	646.565	71.371	-452.194	847.132	39.345	-382.263	886.244	73.402	-445.113	769.171	573.006	-732.487	793.597	456.199	-733.709	705.550	113.558	-731.964	629.920	73.691	-681.240	821.036	42.422	-777.882	868.276	70.799	-721.392	773.172	557.404	-535.270	747.271	120.752	-505.340	786.848	562.215	-609.983	737.119	120.796	-642.168	785.258	371.654	-401.211	714.037	491.803	-392.521	703.242	375.897	-386.072	705.755	476.425	-752.302	693.495	354.285	-753.467	846.881	898.268	-392.716	844.500	783.232	-395.079	798.932	750.757	-382.581	733.664	893.382	-382.790	738.159	776.135	-394.085	861.212	838.761	-752.440	861.060	700.723	-743.074	746.098	838.387	-771.939	748.157	704.323	-752.645	872.023	1093.921	-446.415	683.213	1127.048	-540.512	882.703	1095.437	-704.120	691.943	1125.863	-622.706	730.952	1608.597	-588.600	774.378	1582.881	-422.981	800.145	1575.812	-763.991	873.132	1536.877	-580.115	802.512	1005.699	-459.036	811.393	1007.227	-695.229	797.553	1018.582	-489.700	815.531	1016.141	-658.965	687.578	1126.455	-581.609	877.363	1094.679	-575.267	806.953	1006.463	-577.132	782.471	1110.567	-578.438	774.184	567.851	-472.271	778.010	567.611	-671.235	741.235	117.555	-457.240	721.335	117.177	-687.066	741.235	0.000	-457.240	847.132	0.000	-382.263	886.244	0.000	-445.113	721.335	0.000	-687.066	821.036	0.000	-777.882	868.276	0.000	-721.392
143	2.84000	775.168	578.180	-409.207	789.119	491.811	-404.441	735.192	114.348	-409.129	646.551	71.417	-452.186	847.168	39.383	-382.219	886.234	73.402	-445.099	769.158	572.961	-732.468	793.592	456.223	-733.703	705.587	113.541	-731.963	629.932	73.646	-681.235	821.055	42.403	-777.875	868.284	70.801	-721.420	773.117	557.191	-535.220	747.281	120.782	-505.363	786.846	562.185	-609.901	737.175	120.779	-642.171	785.253	371.568	-401.191	714.043	491.773	-392.506	703.142	375.894	-386.081	705.783	476.480	-752.325	693.564	354.297	-753.614	846.950	898.226	-392.738	844.614	783.184	-395.006	798.979	750.715	-382.465	733.770	893.369	-383.044	738.283	776.097	-394.165	861.358	838.744	-752.397	861.118	700.681	-743.036	746.269	838.390	-772.008	748.327	704.357	-752.632	872.083	1093.882	-446.342	683.376	1127.062	-540.543	882.895	1095.402	-704.092	692.237	1125.851	-622.688	731.149	1608.557	-588.615	774.361	1582.886	-423.011	800.330	1575.722	-763.944	873.235	1536.910	-580.068	802.604	1005.673	-459.007	811.596	1007.204	-695.196	797.528	1018.580	-489.740	815.785	1016.084	-659.008	687.807	1126.456	-581.616	877.489	1094.642	-575.217	807.100	1006.438	-577.101	782.648	1110.549	-578.416	774.143	567.685	-472.213	778.002	567.573	-671.185	741.236	117.565	-457.246	721.381	117.160	-687.067	741.236	0.000	-457.246	847.168	0.000	-382.219	886.234	0.000	-445.099	721.381	0.000	-687.067	821.055	0.000	-777.875	868.284	0.000	-721.420
144	2.86000	775.080	577.904	-409.196	789.067	491.796	-404.423	735.210	114.332	-409.109	646.537	71.400	-452.226	847.140	39.348	-382.248	886.219	73.398	-445.103	769.115	572.990	-732.469	793.540	456.232	-733.680	705.572	113.537	-731.941	629.950	73.711	-681.216	821.036	42.430	-777.887	868.282	70.786	-721.405	773.027	556.810	-535.125	747.238	120.758	-505.382	786.756	562.168	-609.895	737.219	120.761	-642.193	785.221	371.556	-401.190	714.022	491.738	-392.498	703.134	375.855	-386.059	705.721	476.431	-752.255	693.461	354.348	-753.484	847.021	898.186	-392.814	844.745	783.149	-394.908	799.024	750.669	-382.289	733.823	893.336	-383.320	738.400	776.048	-394.111	861.524	838.709	-752.287	861.200	700.625	-742.948	746.379	838.387	-772.037	748.401	704.325	-752.571	872.211	1093.840	-446.268	683.453	1127.131	-540.534	883.099	1095.408	-704.034	692.371	1125.867	-622.758	731.259	1608.566	-588.599	774.344	1582.879	-423.005	800.476	1575.656	-763.913	873.235	1536.985	-580.015	802.664	1005.668	-458.992	811.754	1007.220	-695.176	797.568	1018.666	-489.676	815.926	1016.063	-658.943	687.912	1126.499	-581.646	877.655	1094.624	-575.151	807.209	1006.444	-577.084	782.784	1110.561	-578.398	774.053	567.357	-472.160	777.935	567.579	-671.182	741.224	117.545	-457.245	721.395	117.149	-687.067	741.224	0.000	-457.245	847.140	0.000	-382.248	886.219	0.000	-445.103	721.395	0.000	-687.067	821.036	0.000	-777.887	868.282	0.000	-721.405
145	2.88000	775.017	577.479	-409.096	789.028	491.669	-404.360	735.173	114.335	-409.124	646.554	71.490	-452.154	847.142	39.342	-382.239	886.222	73.453	-445.066	769.047	573.020	-732.451	793.454	456.272	-733.715	705.629	113.585	-731.953	629.907	73.740	-681.222	821.056	42.447	-777.856	868.291	70.816	-721.420	773.013	556.360	-535.040	747.254	120.803	-505.388	786.677	562.147	-609.859	737.138	120.746	-642.133	785.130	371.479	-401.198	713.952	491.685	-392.454	703.090	375.805	-386.051	705.633	476.444	-752.255	693.434	354.294	-753.536	847.151	898.049	-393.022	844.688	783.042	-394.697	799.175	750.589	-382.067	733.968	893.339	-383.629	738.567	775.994	-394.058	861.627	838.711	-752.185	861.281	700.674	-742.896	746.531	838.389	-772.049	748.566	704.353	-752.555	872.313	1093.839	-446.215	683.576	1127.150	-540.542	883.234	1095.354	-703.954	692.541	1125.927	-622.698	731.390	1608.606	-588.562	774.351	1582.897	-422.980	800.555	1575.687	-763.841	873.299	1536.938	-579.895	802.735	1005.681	-458.929	811.870	1007.202	-695.113	797.649	1018.591	-489.707	816.116	1016.073	-658.947	688.058	1126.539	-581.620	877.774	1094.596	-575.085	807.303	1006.441	-577.021	782.916	1110.567	-578.353	774.015	566.920	-472.068	777.862	567.584	-671.155	741.213	117.569	-457.256	721.384	117.166	-687.043	741.213	0.000	-457.256	847.142	0.000	-382.239	886.222	0.000	-445.066	721.384	0.000	-687.043	821.056	0.000	-777.856	868.291	0.000	-721.420
